<?xml version="1.0" standalone="no"?>
<!DOCTYPE svg PUBLIC "-//W3C//DTD SVG 20010904//EN"
 "http://www.w3.org/TR/2001/REC-SVG-20010904/DTD/svg10.dtd">
<svg version="1.0" xmlns="http://www.w3.org/2000/svg"
 width="373.000000pt" height="297.000000pt" viewBox="0 0 373.000000 297.000000"
 preserveAspectRatio="xMidYMid meet">

<g transform="translate(0.000000,297.000000) scale(0.100000,-0.100000)"
fill="#000000" stroke="none">
<path d="M1461 2830 c-195 -66 -360 -125 -368 -132 -33 -27 -43 -79 -43 -222
1 -260 45 -461 150 -683 120 -254 316 -458 552 -576 l76 -38 63 26 c97 41 246
144 338 236 167 165 267 347 335 604 41 154 50 232 51 426 0 173 -1 188 -20
209 -26 30 -46 38 -298 120 -117 38 -265 87 -329 110 -64 22 -125 40 -135 40
-10 -1 -177 -55 -372 -120z m572 -74 c106 -35 239 -78 297 -96 58 -17 120 -37
139 -43 l34 -12 -7 -175 c-12 -323 -81 -557 -223 -760 -90 -127 -273 -288
-396 -346 l-39 -18 -66 34 c-74 38 -183 123 -254 196 -157 164 -270 386 -323
639 -23 111 -33 424 -14 436 8 5 52 20 99 35 47 14 184 59 305 99 121 41 228
74 238 74 10 1 104 -28 210 -63z"/>
<path d="M1751 2658 c-25 -13 -59 -40 -75 -61 -28 -35 -31 -46 -31 -111 0 -60
4 -78 24 -108 41 -60 85 -83 157 -83 55 0 67 4 101 31 62 50 84 98 80 171 -2
52 -8 69 -34 100 -62 78 -147 101 -222 61z m146 -91 c30 -29 36 -40 37 -78 2
-85 -65 -136 -147 -112 -37 10 -77 64 -77 103 0 34 37 91 70 107 43 22 78 16
117 -20z"/>
<path d="M1800 2535 c0 -20 -5 -25 -25 -25 -20 0 -25 -5 -25 -25 0 -20 5 -25
24 -25 18 0 25 -6 28 -22 4 -33 45 -37 50 -6 2 15 10 23 23 23 30 0 28 49 -2
53 -17 3 -23 10 -23 28 0 19 -5 24 -25 24 -20 0 -25 -5 -25 -25z"/>
<path d="M1512 2578 c-7 -7 -26 -13 -43 -14 -38 -2 -86 -46 -98 -91 -20 -73
49 -200 185 -343 73 -76 154 -130 196 -130 16 0 18 -10 18 -80 0 -135 54 -235
152 -284 67 -34 135 -34 203 -2 106 50 157 134 159 258 1 76 1 77 33 92 20 9
41 32 54 57 49 98 -13 208 -127 225 -50 7 -89 -11 -129 -58 -25 -30 -27 -38
-22 -94 5 -71 30 -115 77 -136 29 -12 30 -16 30 -73 0 -70 -27 -136 -68 -171
-51 -45 -138 -44 -198 1 -51 39 -67 78 -72 176 l-4 87 33 7 c118 26 194 125
137 181 -13 13 -16 12 -28 -11 -19 -36 -103 -87 -153 -92 -68 -8 -122 12 -179
67 -28 27 -56 46 -63 44 -7 -3 -26 17 -44 48 -18 29 -48 78 -67 108 -56 88
-41 160 25 123 32 -18 32 -18 57 10 28 33 30 54 8 85 -17 24 -53 29 -72 10z
m782 -429 c31 -37 32 -49 5 -83 -15 -19 -30 -26 -54 -26 -36 0 -75 36 -75 70
0 10 9 29 21 44 29 37 70 35 103 -5z"/>
<path d="M2077 2572 c-25 -28 -21 -67 10 -91 24 -20 28 -20 50 -5 23 14 26 14
44 -2 25 -23 24 -29 -11 -112 -16 -39 -30 -73 -30 -75 0 -3 21 0 48 7 41 10
50 17 70 56 50 99 11 210 -73 210 -20 0 -35 6 -39 15 -8 21 -49 19 -69 -3z"/>
<path d="M1556 893 c-3 -21 -6 -70 -6 -110 l0 -72 -37 21 c-73 43 -172 20
-221 -52 -52 -78 -53 -163 -1 -244 52 -83 159 -109 230 -57 36 27 39 26 39 -4
0 -24 3 -25 53 -25 l53 0 -1 290 0 290 -51 0 -51 0 -7 -37z m-49 -253 c37 -22
48 -54 39 -108 -7 -45 -39 -71 -88 -72 -81 0 -119 110 -59 171 34 34 64 37
108 9z"/>
<path d="M3632 914 c-27 -19 -28 -44 -2 -72 26 -27 44 -28 70 -2 24 24 25 38
4 68 -18 26 -41 28 -72 6z m23 -14 c-3 -5 1 -10 9 -10 9 0 16 5 16 12 0 9 3 9
11 1 15 -15 3 -62 -16 -70 -30 -11 -62 47 -38 70 10 11 25 8 18 -3z"/>
<path d="M119 773 c0 -82 -3 -200 -5 -263 -5 -159 -4 -162 60 -158 l51 3 5
160 5 160 35 -60 c19 -33 38 -67 42 -75 30 -61 107 -175 120 -178 16 -3 65 72
159 243 l44 80 3 -167 2 -168 54 0 53 0 6 48 c2 26 2 153 -2 282 l-6 235 -45
3 c-25 1 -51 -1 -57 -6 -7 -4 -48 -73 -92 -152 -44 -80 -88 -160 -99 -179
l-19 -34 -40 74 c-23 41 -64 119 -93 174 -29 55 -57 106 -62 113 -6 7 -33 12
-64 12 l-54 0 -1 -147z"/>
<path d="M1772 904 c-46 -32 -17 -114 39 -114 20 0 59 45 59 67 0 18 -45 63
-62 63 -8 0 -24 -7 -36 -16z"/>
<path d="M1957 912 l-58 -3 3 -47 3 -47 67 -3 68 -3 2 -222 3 -222 58 -3 57
-3 0 225 0 225 73 3 72 3 3 46 3 47 -69 7 c-63 6 -121 6 -285 -3z"/>
<path d="M3448 853 c-26 -4 -28 -8 -28 -54 0 -46 -2 -49 -25 -49 -23 0 -25 -4
-25 -45 0 -41 2 -45 25 -45 l25 0 0 -101 c0 -74 5 -111 17 -136 29 -62 101
-89 167 -63 23 8 26 15 26 55 l0 46 -33 -6 c-46 -9 -67 13 -67 69 0 24 -3 64
-6 90 l-7 46 53 0 c43 0 51 3 46 16 -3 9 -6 29 -6 44 0 27 -3 29 -42 32 l-43
3 -3 53 c-3 56 -2 56 -74 45z"/>
<path d="M951 745 c-164 -51 -178 -295 -20 -375 58 -30 151 -27 217 6 29 14
52 29 52 33 0 4 -13 20 -29 35 -28 27 -30 27 -59 12 -69 -35 -185 0 -169 52 1
4 59 5 129 3 70 -1 131 0 136 3 16 10 -7 128 -33 167 -28 43 -96 79 -146 78
-19 0 -54 -6 -78 -14z m136 -107 c13 -12 23 -25 23 -30 0 -4 -38 -8 -85 -8
-48 0 -85 4 -85 10 0 5 10 18 22 30 30 28 94 27 125 -2z"/>
<path d="M3135 746 c-60 -23 -95 -67 -95 -120 0 -67 31 -97 125 -125 60 -17
76 -25 73 -39 -4 -23 -69 -28 -118 -8 l-38 15 -25 -36 c-14 -20 -24 -40 -22
-44 11 -16 102 -39 157 -39 96 0 158 47 158 120 0 50 -28 77 -122 115 -56 23
-73 35 -73 50 0 24 50 32 98 15 29 -10 34 -8 59 21 16 17 28 35 28 39 0 12
-77 40 -124 45 -23 3 -58 -1 -81 -9z"/>
<path d="M1752 553 l3 -198 53 -3 52 -3 0 200 0 201 -55 0 -55 0 2 -197z"/>
<path d="M2320 555 l0 -195 24 -6 c13 -3 35 -4 47 -2 23 3 24 6 29 124 6 147
15 164 90 164 45 0 48 2 54 31 14 71 10 79 -36 79 -25 0 -57 -8 -75 -20 -33
-20 -33 -20 -33 0 0 17 -7 20 -50 20 l-50 0 0 -195z"/>
<path d="M2606 608 c4 -102 11 -153 23 -178 36 -77 133 -104 205 -55 l36 24 0
-22 c0 -20 4 -22 45 -19 55 5 53 -5 58 220 l4 172 -53 0 -54 0 0 -102 c0 -137
-11 -175 -56 -194 -39 -16 -63 -9 -88 28 -12 17 -16 50 -16 145 l0 123 -55 0
-55 0 6 -142z"/>
<path d="M1730 210 c0 -48 -9 -51 -33 -10 -21 36 -47 40 -47 8 0 -13 -3 -40
-7 -62 -5 -31 -3 -38 8 -34 8 3 16 17 19 33 l5 28 32 -27 32 -27 11 22 c13 24
5 109 -11 109 -5 0 -9 -18 -9 -40z"/>
<path d="M113 223 c-3 -10 -12 -33 -19 -52 -8 -18 -14 -40 -14 -49 0 -13 2
-13 18 1 23 21 51 22 58 2 10 -26 25 -16 18 13 -8 31 -42 102 -50 102 -2 0 -7
-8 -11 -17z m27 -48 c0 -8 -4 -15 -10 -15 -5 0 -10 7 -10 15 0 8 5 15 10 15 6
0 10 -7 10 -15z"/>
<path d="M259 239 c0 -2 -1 -32 -2 -67 -2 -61 -1 -62 24 -62 15 0 38 9 53 21
47 37 26 92 -42 105 -18 4 -32 5 -33 3z m59 -38 c22 -13 11 -56 -15 -59 -20
-3 -23 1 -23 32 0 36 11 44 38 27z"/>
<path d="M404 215 c-27 -27 -26 -54 4 -87 21 -24 44 -22 70 5 27 29 28 57 2
85 -27 29 -45 28 -76 -3z m66 -26 c14 -24 -2 -49 -31 -49 -24 0 -32 16 -25 46
8 30 41 32 56 3z"/>
<path d="M542 217 c-29 -30 -28 -58 2 -86 18 -17 32 -22 50 -17 36 9 32 24 -6
28 -29 3 -33 6 -33 33 0 25 4 30 25 31 41 2 43 3 30 19 -18 22 -43 19 -68 -8z"/>
<path d="M647 233 c-13 -12 -7 -23 13 -23 17 0 20 -7 20 -50 0 -27 5 -50 10
-50 6 0 10 23 10 50 0 43 3 50 20 50 11 0 20 7 20 15 0 11 -11 15 -43 15 -24
0 -47 -3 -50 -7z"/>
<path d="M782 224 c-33 -23 -30 -78 4 -101 24 -15 29 -15 53 -2 36 20 41 73
10 100 -27 23 -38 24 -67 3z m61 -36 c13 -20 -6 -48 -34 -48 -22 0 -35 36 -18
56 15 18 38 15 52 -8z"/>
<path d="M900 182 c0 -63 13 -89 24 -49 l6 22 19 -22 c24 -29 46 -31 32 -4 -7
12 -7 28 2 50 14 38 5 49 -46 58 l-37 6 0 -61z m60 13 c0 -8 -9 -15 -20 -15
-11 0 -20 7 -20 15 0 8 9 15 20 15 11 0 20 -7 20 -15z"/>
<path d="M1091 179 c-22 -56 -22 -95 0 -56 12 21 48 22 55 2 4 -8 13 -15 21
-15 10 0 12 6 7 23 -11 37 -46 107 -53 107 -3 0 -17 -27 -30 -61z m35 -16
c-10 -10 -19 5 -10 18 6 11 8 11 12 0 2 -7 1 -15 -2 -18z"/>
<path d="M1210 175 c0 -37 4 -65 10 -65 6 0 10 7 10 15 0 8 16 22 35 31 21 10
35 23 35 35 0 22 -37 49 -67 49 -22 0 -23 -4 -23 -65z m60 21 c0 -15 -24 -28
-34 -19 -13 14 -5 33 14 33 11 0 20 -6 20 -14z"/>
<path d="M1326 210 c-9 -48 -7 -100 4 -100 6 0 10 7 10 15 0 8 20 23 45 34 25
11 45 24 45 29 0 21 -28 43 -61 48 -34 6 -36 5 -43 -26z m64 -14 c0 -15 -24
-28 -34 -19 -13 14 -5 33 14 33 11 0 20 -6 20 -14z"/>
<path d="M1462 227 c-6 -7 -15 -25 -21 -39 -8 -22 -6 -31 10 -52 27 -34 50
-33 77 4 27 36 21 73 -14 89 -32 14 -39 14 -52 -2z m68 -46 c0 -43 -62 -52
-73 -11 -6 25 0 30 40 30 26 0 33 -4 33 -19z"/>
<path d="M1582 217 c-15 -34 -15 -54 -2 -62 14 -9 22 17 18 57 l-4 33 -12 -28z"/>
<path d="M1777 233 c-12 -11 -8 -23 8 -23 13 0 20 -14 27 -64 2 -11 9 -21 17
-24 10 -3 12 6 10 41 -4 43 -2 46 20 49 14 2 26 9 29 16 3 8 -12 12 -50 12
-30 0 -58 -3 -61 -7z"/>
<path d="M1920 175 c0 -37 4 -65 10 -65 6 0 10 14 10 30 0 34 7 38 26 13 12
-17 14 -17 28 2 15 19 15 19 16 -12 0 -23 5 -33 15 -33 12 0 15 14 15 65 0 36
-4 65 -9 65 -5 0 -19 -12 -31 -27 l-22 -28 -22 28 c-12 15 -25 27 -29 27 -4 0
-7 -29 -7 -65z"/>
<path d="M2080 176 l0 -66 40 0 c28 0 40 4 40 14 0 9 -9 14 -24 13 -30 -2 -38
16 -10 21 32 6 40 22 11 22 -36 0 -36 28 1 32 42 5 32 23 -15 26 l-43 3 0 -65z"/>
<path d="M2207 227 c-7 -19 5 -117 14 -117 5 0 9 14 9 30 0 17 4 30 10 30 5 0
19 -13 32 -30 12 -16 25 -30 30 -30 4 0 8 29 8 65 0 37 -4 65 -10 65 -5 0 -10
-16 -10 -35 0 -43 -9 -44 -35 -5 -23 34 -41 44 -48 27z"/>
<path d="M2340 225 c0 -8 9 -15 20 -15 17 0 20 -7 20 -50 0 -27 5 -50 10 -50
6 0 10 23 10 50 0 46 2 50 25 50 18 0 23 4 19 15 -4 11 -21 15 -55 15 -37 0
-49 -4 -49 -15z"/>
<path d="M2540 175 l0 -65 34 0 c44 0 55 15 51 69 -4 48 -16 61 -57 61 -28 0
-28 -1 -28 -65z m50 20 c-12 -15 -30 -12 -30 6 0 5 10 9 21 9 18 0 19 -2 9
-15z m10 -51 c0 -8 -9 -14 -20 -14 -22 0 -26 10 -8 28 13 13 28 7 28 -14z"/>
<path d="M2680 220 c-25 -25 -26 -72 0 -95 26 -23 61 -14 83 24 17 29 17 30
-9 60 -30 36 -46 39 -74 11z m58 -22 c17 -17 15 -45 -4 -52 -23 -9 -54 2 -54
19 0 41 32 59 58 33z"/>
<path d="M2816 225 c-54 -55 -4 -142 59 -101 34 23 41 53 18 85 -24 31 -55 38
-77 16z m60 -39 c7 -31 -1 -46 -26 -46 -25 0 -41 29 -29 52 14 27 47 23 55 -6z"/>
<path d="M2995 220 c-22 -24 -35 -26 -35 -5 0 8 -4 15 -10 15 -6 0 -10 -27
-10 -60 0 -33 4 -60 10 -60 6 0 10 9 10 20 0 26 8 25 37 -2 30 -28 43 -15 15
15 -28 30 -28 35 5 69 19 20 22 28 11 28 -8 0 -23 -9 -33 -20z"/>
<path d="M3070 175 c0 -65 14 -87 26 -40 4 18 13 25 31 25 13 0 21 4 18 10 -3
6 -15 10 -26 10 -30 0 -22 28 11 35 45 10 36 25 -15 25 l-45 0 0 -65z"/>
<path d="M3201 195 c-22 -48 -27 -85 -11 -85 6 0 10 7 10 15 0 20 39 19 62 -2
10 -9 18 -11 18 -5 0 14 -47 122 -53 122 -3 0 -14 -20 -26 -45z m39 -26 c0 -5
-7 -9 -15 -9 -15 0 -20 12 -9 23 8 8 24 -1 24 -14z"/>
<path d="M3321 168 c0 -52 2 -59 10 -38 15 36 17 36 47 6 l29 -27 0 43 c0 24
2 50 4 58 3 11 -7 16 -43 18 l-48 3 1 -63z m72 46 c11 -11 -5 -34 -24 -34 -18
0 -26 20 -12 33 8 9 28 9 36 1z"/>
<path d="M3464 184 c-6 -43 2 -63 26 -64 4 0 5 53 1 98 -3 30 -20 8 -27 -34z"/>
<path d="M3550 217 c0 -8 -9 -22 -20 -32 -11 -10 -20 -27 -20 -38 0 -18 2 -17
20 4 l19 24 1 -27 c0 -16 5 -28 10 -28 6 0 10 18 10 39 0 22 3 46 6 55 4 11 1
16 -10 16 -9 0 -16 -6 -16 -13z"/>
</g>
</svg>
