<?xml version="1.0" standalone="no"?>
<!DOCTYPE svg PUBLIC "-//W3C//DTD SVG 20010904//EN"
 "http://www.w3.org/TR/2001/REC-SVG-20010904/DTD/svg10.dtd">
<svg version="1.0" xmlns="http://www.w3.org/2000/svg"
 width="1640.000000pt" height="664.000000pt" viewBox="0 0 1640.000000 664.000000"
 preserveAspectRatio="xMidYMid meet">

<g transform="translate(0.000000,664.000000) scale(0.100000,-0.100000)"
fill="#000000" stroke="none">
<path d="M2845 6105 c-5 -2 -75 -24 -155 -50 -564 -179 -1153 -375 -1505 -500
-71 -26 -161 -57 -200 -70 -38 -13 -95 -33 -125 -45 -30 -12 -66 -25 -80 -29
-14 -5 -63 -23 -110 -41 -195 -75 -229 -184 -230 -727 0 -426 30 -738 109
-1123 92 -446 337 -1046 592 -1450 90 -141 218 -320 291 -405 9 -11 26 -31 38
-45 357 -416 723 -701 1226 -954 l171 -86 39 15 c22 9 48 20 59 25 11 5 45 19
75 31 67 28 255 124 292 150 14 11 29 19 33 19 11 0 232 149 340 229 347 258
649 568 880 904 22 32 45 66 50 75 6 9 22 35 36 57 117 181 267 498 359 760
63 180 76 224 138 455 118 437 144 641 158 1255 6 268 -5 564 -23 650 -3 16
-29 52 -57 80 -79 80 -136 103 -696 288 -505 168 -1012 336 -1280 425 -317
106 -381 122 -425 107z m95 -419 c47 -14 130 -39 185 -56 55 -17 120 -37 145
-45 54 -16 404 -129 585 -190 220 -73 370 -121 855 -271 80 -25 170 -54 200
-64 l55 -18 -2 -249 c-3 -250 -25 -672 -43 -793 -5 -36 -16 -119 -25 -185 -28
-206 -78 -446 -130 -622 -8 -29 -21 -74 -29 -100 -54 -191 -216 -563 -311
-713 -14 -22 -25 -42 -25 -45 0 -10 -168 -260 -195 -291 -5 -6 -41 -50 -80
-98 -103 -126 -438 -454 -560 -547 -16 -13 -32 -26 -35 -29 -3 -3 -41 -33 -85
-66 -150 -114 -280 -196 -412 -261 l-131 -65 -89 43 c-340 167 -711 451 -985
754 -361 400 -647 912 -826 1485 -20 62 -38 127 -81 290 -67 253 -95 572 -96
1077 0 390 1 403 20 422 18 18 226 91 440 156 50 15 99 31 110 35 11 5 155 52
320 105 165 54 433 142 595 195 162 53 331 107 375 120 44 12 98 29 120 36 51
17 36 18 135 -10z"/>
<path d="M2730 5244 c-138 -37 -323 -185 -395 -315 l-30 -54 0 -215 0 -215 29
-55 c39 -74 107 -161 159 -204 107 -88 235 -122 425 -114 92 4 118 9 163 31
30 14 63 34 74 44 11 10 41 36 65 57 61 54 132 143 158 200 61 129 68 378 14
496 -63 138 -252 301 -401 344 -67 20 -188 20 -261 0z m244 -254 c77 -36 171
-125 198 -188 65 -145 7 -357 -119 -438 -68 -44 -117 -58 -198 -57 -148 3
-258 79 -330 228 -27 55 -27 165 0 220 108 222 284 314 449 235z"/>
<path d="M2810 4887 c-21 -10 -26 -22 -31 -70 -4 -32 -9 -60 -12 -63 -3 -3
-30 -9 -61 -13 -31 -4 -62 -13 -69 -20 -7 -7 -12 -35 -11 -63 1 -59 18 -78 74
-78 40 0 80 -23 80 -47 0 -8 7 -30 16 -48 33 -69 127 -69 140 1 9 46 46 84 83
84 37 0 61 31 61 78 0 39 -34 78 -77 88 -44 10 -61 32 -68 85 -10 72 -60 99
-125 66z"/>
<path d="M1910 4970 c-67 -39 -115 -57 -169 -64 -30 -4 -72 -16 -94 -28 -60
-30 -149 -124 -183 -193 -26 -54 -29 -70 -29 -155 1 -78 6 -109 29 -175 76
-213 226 -439 479 -722 110 -124 299 -296 385 -350 15 -10 29 -20 32 -23 23
-24 179 -99 219 -105 74 -12 82 -16 92 -43 6 -15 14 -121 19 -237 8 -179 13
-224 36 -305 76 -277 226 -462 460 -572 238 -111 483 -86 732 75 190 123 295
279 351 519 6 26 16 130 22 230 6 101 16 194 22 208 7 13 41 42 76 63 144 87
222 225 223 397 2 210 -128 385 -344 462 -49 18 -84 23 -163 23 -88 0 -107 -4
-157 -28 -63 -29 -188 -145 -227 -210 -30 -49 -36 -125 -22 -256 24 -219 91
-332 240 -404 81 -39 91 -60 91 -201 0 -230 -70 -420 -201 -546 -64 -61 -140
-97 -235 -111 -171 -26 -344 36 -470 167 -101 106 -128 196 -150 513 -18 259
-21 244 50 255 210 34 422 171 500 324 40 79 29 184 -25 240 -39 40 -55 40
-77 1 -46 -84 -133 -157 -287 -240 -260 -141 -531 -92 -770 138 -79 75 -161
133 -190 133 -32 0 -103 84 -182 215 -6 11 -55 91 -108 177 -135 221 -156 270
-162 371 -5 78 -4 85 20 112 35 41 81 38 174 -9 83 -42 87 -42 150 27 81 88
100 156 63 232 -26 55 -39 69 -85 94 -50 26 -90 27 -135 1z m2345 -1298 c54
-38 133 -138 141 -179 10 -55 -48 -149 -121 -197 -43 -28 -146 -28 -201 1 -45
24 -110 91 -124 129 -16 42 -11 92 14 142 29 57 92 119 132 132 47 15 115 3
159 -28z"/>
<path d="M3702 4970 c-54 -24 -77 -51 -98 -113 -28 -83 6 -161 100 -228 49
-36 64 -36 124 1 70 43 100 40 151 -15 41 -44 45 -56 41 -105 -2 -23 -38 -130
-60 -175 -5 -11 -16 -38 -26 -60 -9 -22 -33 -82 -55 -134 -21 -52 -37 -97 -34
-100 3 -2 35 1 73 8 177 32 231 68 291 194 67 141 87 282 55 395 -47 169 -131
245 -284 259 -69 6 -120 26 -120 46 0 18 -53 47 -87 47 -15 0 -47 -9 -71 -20z"/>
<path d="M9756 4198 c-18 -98 -26 -209 -26 -397 -1 -115 -4 -211 -7 -214 -3
-3 -42 14 -87 38 -103 55 -172 75 -261 75 -201 0 -371 -107 -463 -292 -53
-106 -72 -181 -72 -288 0 -106 20 -190 65 -283 91 -187 232 -297 417 -327 115
-18 234 14 345 93 70 51 80 49 85 -19 7 -81 14 -84 180 -84 l138 0 0 865 0
865 -154 0 -154 0 -6 -32z m-234 -798 c86 -33 146 -83 175 -147 23 -50 25 -64
20 -147 -3 -50 -12 -107 -21 -127 -41 -97 -126 -149 -241 -149 -88 0 -137 22
-192 84 -130 148 -84 394 89 480 62 31 100 32 170 6z"/>
<path d="M16028 4220 c-111 -34 -165 -120 -124 -198 22 -41 88 -101 124 -111
42 -13 105 20 150 78 40 53 40 81 2 148 -43 75 -92 102 -152 83z m-6 -77 c5
-42 42 -43 66 -4 18 30 20 30 35 13 36 -40 30 -131 -14 -186 -41 -52 -115 -28
-150 48 -26 58 -24 102 6 131 32 33 53 32 57 -2z"/>
<path d="M5444 3654 c-13 -807 -12 -1075 5 -1107 23 -42 56 -50 190 -42 l120
7 5 62 c3 33 10 243 17 466 6 223 13 407 15 409 2 2 6 2 8 0 6 -7 199 -346
260 -459 74 -135 218 -350 276 -413 l46 -49 31 26 c17 14 63 72 101 129 69
102 287 475 396 679 32 59 61 110 65 112 9 6 21 -418 21 -747 l0 -227 163 2
162 3 7 50 c16 115 0 1568 -18 1623 -3 11 -35 13 -150 10 l-146 -3 -23 -29
c-32 -41 -230 -383 -435 -754 -95 -172 -176 -310 -180 -305 -7 8 -233 426
-390 723 -170 319 -187 347 -223 361 -17 6 -95 14 -173 17 l-141 4 -9 -548z"/>
<path d="M10435 4178 c-112 -58 -143 -147 -89 -257 42 -84 130 -129 191 -98
58 30 143 140 143 185 0 52 -134 193 -183 192 -12 -1 -40 -10 -62 -22z"/>
<path d="M11215 4190 c-82 -4 -217 -11 -298 -15 l-148 -7 6 -117 c4 -64 8
-126 11 -138 5 -28 21 -30 234 -38 91 -4 166 -7 167 -8 1 -1 5 -298 9 -660 4
-362 10 -660 14 -662 3 -2 81 -7 173 -11 l167 -7 0 671 0 672 58 1 c123 1 362
16 368 22 10 9 25 260 17 267 -28 25 -520 44 -778 30z"/>
<path d="M15480 4010 c-156 -20 -156 -20 -162 -179 -5 -130 -12 -141 -85 -141
-56 0 -63 -15 -63 -139 0 -92 2 -101 22 -115 14 -10 44 -16 75 -16 l53 0 0
-247 c0 -364 18 -446 116 -552 74 -80 149 -114 264 -118 69 -3 97 1 150 19 84
30 90 41 90 192 0 109 -1 118 -17 111 -10 -4 -55 -9 -100 -12 -146 -10 -166
23 -182 287 -6 96 -15 202 -21 235 -5 33 -10 65 -10 71 0 8 43 13 134 16 157
4 167 9 155 71 -5 23 -11 72 -15 110 -7 83 -13 87 -139 94 -51 3 -98 9 -103
12 -6 3 -15 66 -20 140 -6 88 -14 138 -23 146 -20 19 -56 24 -119 15z"/>
<path d="M8048 3704 c-216 -39 -359 -142 -444 -319 -125 -261 -57 -574 166
-761 58 -48 168 -99 248 -114 93 -19 299 -8 387 20 83 26 235 102 260 131 18
19 16 21 -62 99 -90 91 -100 94 -184 56 -30 -14 -83 -30 -119 -36 -177 -32
-390 52 -390 152 0 24 6 38 16 42 9 3 183 6 387 6 219 0 378 4 387 10 34 21 5
239 -51 394 -47 130 -125 211 -264 277 -79 37 -169 60 -229 58 -17 0 -65 -7
-108 -15z m237 -311 c52 -27 131 -111 117 -125 -18 -18 -239 -30 -366 -19 -66
6 -124 15 -129 20 -21 21 73 115 138 140 49 18 193 8 240 -16z"/>
<path d="M14523 3695 c-135 -30 -260 -124 -311 -233 -23 -49 -27 -70 -26 -147
0 -200 76 -271 399 -376 161 -52 192 -71 181 -112 -9 -38 -57 -52 -166 -51
-83 1 -107 6 -194 38 -54 20 -100 36 -101 36 -4 0 -111 -161 -124 -187 -28
-54 -2 -76 139 -116 406 -116 730 -12 780 249 22 111 -16 209 -103 271 -59 42
-102 64 -256 133 -73 32 -148 69 -167 82 -104 71 -32 148 126 135 36 -3 85
-13 109 -21 82 -30 105 -23 170 45 32 34 68 78 80 100 l22 39 -33 20 c-132 81
-386 127 -525 95z"/>
<path d="M10326 3263 c2 -236 7 -500 10 -589 l6 -161 106 -7 c58 -3 127 -6
154 -6 l48 0 0 595 0 595 -164 0 -165 0 5 -427z"/>
<path d="M12032 3108 l3 -583 50 -11 c62 -15 146 -17 178 -5 38 15 47 57 57
280 19 382 36 478 95 530 38 33 59 38 190 44 136 7 137 8 161 140 19 113 18
134 -11 162 -21 22 -33 25 -92 25 -88 0 -172 -22 -250 -66 -33 -18 -66 -34
-71 -34 -5 0 -12 18 -16 40 -8 54 -27 60 -177 60 l-119 0 2 -582z"/>
<path d="M12869 3686 c-6 -7 18 -570 31 -696 20 -204 54 -293 142 -376 109
-101 265 -138 404 -96 39 12 101 43 144 72 l75 50 5 -47 c3 -27 9 -54 13 -60
9 -15 118 -17 186 -4 49 10 66 27 81 81 11 38 25 341 35 798 l7 282 -160 0
-160 0 -5 -317 c-5 -331 -11 -387 -54 -469 -39 -77 -167 -135 -247 -113 -48
13 -109 69 -135 123 -28 57 -41 219 -41 529 l0 247 -158 0 c-87 0 -161 -2
-163 -4z"/>
</g>
</svg>
