<?xml version="1.0" standalone="no"?>
<!DOCTYPE svg PUBLIC "-//W3C//DTD SVG 20010904//EN"
 "http://www.w3.org/TR/2001/REC-SVG-20010904/DTD/svg10.dtd">
<svg version="1.0" xmlns="http://www.w3.org/2000/svg"
 width="166.000000pt" height="182.000000pt" viewBox="0 0 166.000000 182.000000"
 preserveAspectRatio="xMidYMid meet">

<g transform="translate(0.000000,182.000000) scale(0.100000,-0.100000)"
fill="#000000" stroke="none">
<path d="M475 1685 c-187 -63 -351 -121 -365 -129 -49 -27 -59 -67 -59 -226 0
-262 43 -463 148 -686 121 -254 309 -452 547 -574 l81 -41 64 26 c96 40 244
143 335 233 166 162 270 350 338 607 41 154 50 232 51 426 0 173 -1 188 -20
209 -26 30 -52 40 -300 121 -115 37 -263 86 -327 108 -64 23 -125 41 -135 41
-10 0 -171 -52 -358 -115z m558 -79 c106 -35 239 -78 297 -96 58 -17 120 -37
139 -43 l34 -12 -6 -175 c-7 -187 -27 -314 -73 -454 -86 -268 -282 -508 -522
-638 l-62 -33 -67 35 c-75 38 -184 122 -255 196 -157 164 -270 386 -323 639
-23 111 -33 424 -14 436 8 5 52 20 99 35 47 14 184 59 305 99 121 41 228 74
238 74 10 1 104 -28 210 -63z"/>
<path d="M765 1516 c-50 -19 -112 -87 -121 -133 -16 -87 15 -166 84 -214 28
-19 48 -24 98 -24 55 0 67 4 101 31 62 50 84 98 80 171 -2 52 -8 69 -34 100
-56 70 -133 96 -208 69z m132 -99 c30 -29 36 -40 37 -78 3 -117 -137 -164
-202 -69 -50 73 10 179 101 180 17 0 41 -12 64 -33z"/>
<path d="M800 1385 c0 -20 -5 -25 -25 -25 -20 0 -25 -5 -25 -25 0 -20 5 -25
24 -25 18 0 25 -6 28 -22 4 -33 45 -37 50 -6 2 17 9 22 26 21 20 -3 23 1 20
25 -2 19 -9 28 -25 30 -17 3 -23 10 -23 28 0 19 -5 24 -25 24 -20 0 -25 -5
-25 -25z"/>
<path d="M512 1428 c-7 -7 -26 -13 -43 -14 -38 -2 -86 -46 -98 -91 -21 -74 43
-193 181 -338 76 -81 157 -135 200 -135 16 0 18 -10 18 -80 0 -137 52 -234
152 -284 67 -34 135 -34 203 -2 106 50 157 134 159 258 1 73 3 78 26 89 14 6
36 25 50 42 35 43 36 129 2 172 -72 92 -176 97 -247 13 -25 -30 -27 -38 -22
-94 5 -71 30 -115 77 -136 29 -12 30 -16 30 -73 0 -70 -27 -136 -68 -171 -51
-45 -138 -44 -198 1 -51 39 -67 78 -72 176 l-4 87 33 7 c118 26 194 125 137
181 -13 13 -16 12 -27 -8 -6 -13 -34 -39 -62 -57 -95 -65 -202 -50 -283 39
-22 24 -41 37 -50 34 -10 -4 -21 7 -35 34 -11 22 -30 52 -43 68 -61 76 -85
158 -54 183 12 10 20 9 40 -4 24 -16 28 -16 51 -1 33 22 42 59 21 91 -18 27
-54 33 -74 13z m782 -429 c31 -37 32 -49 5 -83 -28 -36 -80 -36 -108 0 -12 15
-21 34 -21 44 0 10 9 29 21 44 29 37 70 35 103 -5z"/>
<path d="M1077 1422 c-25 -28 -21 -67 10 -91 24 -20 28 -20 50 -5 23 14 26 14
44 -2 25 -23 24 -32 -11 -109 -16 -36 -30 -69 -30 -74 0 -5 21 -4 48 3 41 10
50 17 70 56 50 99 11 210 -73 210 -20 0 -35 6 -39 15 -8 21 -49 19 -69 -3z"/>
</g>
</svg>
