<?xml version="1.0" standalone="no"?>
<!DOCTYPE svg PUBLIC "-//W3C//DTD SVG 20010904//EN"
 "http://www.w3.org/TR/2001/REC-SVG-20010904/DTD/svg10.dtd">
<svg version="1.0" xmlns="http://www.w3.org/2000/svg"
 width="331.000000pt" height="367.000000pt" viewBox="0 0 331.000000 367.000000"
 preserveAspectRatio="xMidYMid meet">

<g transform="translate(0.000000,367.000000) scale(0.100000,-0.100000)"
fill="#000000" stroke="none">
<path d="M1520 3595 c-58 -18 -379 -126 -714 -239 -418 -140 -622 -214 -650
-233 -26 -19 -51 -50 -71 -88 l-30 -59 0 -350 c0 -404 8 -484 81 -782 129
-527 384 -993 731 -1336 203 -200 375 -324 634 -454 134 -68 164 -69 292 -9
452 211 865 598 1098 1030 137 254 206 435 283 740 76 300 88 407 93 805 5
381 3 407 -50 467 -43 49 -113 79 -363 156 -211 66 -578 187 -954 316 -113 39
-221 71 -240 70 -19 0 -82 -15 -140 -34z m527 -364 c353 -118 710 -230 902
-285 l74 -21 -6 -295 c-8 -395 -38 -621 -124 -920 -58 -206 -163 -447 -257
-594 -165 -259 -457 -558 -691 -709 -98 -63 -258 -147 -280 -147 -26 0 -196
92 -290 158 -507 354 -851 876 -1005 1527 -52 218 -70 416 -70 766 l0 217 158
50 c504 162 751 242 947 308 121 40 228 74 237 74 9 0 191 -58 405 -129z"/>
<path d="M1539 3051 c-193 -62 -314 -265 -273 -458 41 -198 209 -334 393 -321
182 13 333 159 362 349 10 62 9 84 -4 136 -37 143 -154 262 -292 298 -75 19
-116 18 -186 -4z m207 -176 c107 -62 153 -194 104 -298 -62 -132 -191 -182
-310 -119 -120 62 -161 201 -95 317 72 125 191 165 301 100z"/>
<path d="M1593 2824 c-8 -4 -10 -21 -6 -55 l6 -49 -52 0 -52 0 3 -52 3 -53 48
2 47 3 0 -40 c0 -31 5 -43 24 -56 14 -8 35 -14 48 -12 19 2 25 12 32 51 l10
48 38 -3 c44 -3 58 10 58 58 0 41 -16 54 -67 54 l-44 0 6 34 c10 51 -8 76 -53
75 -20 0 -42 -3 -49 -5z"/>
<path d="M2195 2881 c-94 -58 -107 -152 -30 -220 44 -38 83 -40 123 -6 40 34
56 32 88 -11 39 -51 35 -84 -29 -221 -54 -116 -76 -180 -59 -169 5 3 41 12 82
20 40 9 83 22 96 31 13 8 39 46 58 83 75 149 70 280 -14 376 -45 50 -79 66
-144 66 -44 0 -56 4 -60 18 -6 17 -55 52 -73 52 -4 0 -21 -8 -38 -19z"/>
<path d="M1007 2861 c-22 -26 -30 -29 -85 -28 -75 0 -128 -30 -173 -101 -54
-86 -61 -166 -24 -277 21 -61 106 -208 171 -295 64 -84 296 -329 354 -373 61
-46 158 -94 217 -107 26 -6 51 -16 55 -23 4 -7 8 -75 8 -152 0 -158 12 -220
61 -318 71 -142 189 -247 322 -288 55 -17 87 -21 162 -17 88 4 100 7 189 51
129 64 192 123 251 237 59 115 80 216 71 348 l-5 92 44 21 c56 27 109 80 143
144 37 70 38 178 3 250 -57 114 -169 190 -301 202 -73 7 -149 -26 -215 -93
-61 -64 -75 -97 -75 -188 0 -115 30 -197 93 -260 31 -31 70 -57 96 -66 l44
-15 -2 -108 c-3 -158 -34 -249 -116 -336 -62 -66 -122 -94 -216 -99 -67 -4
-84 -1 -133 21 -31 14 -81 49 -111 78 -95 90 -124 185 -125 402 0 78 3 109 13
111 6 2 35 8 62 15 84 19 192 78 251 137 l54 54 0 78 c0 73 -2 80 -29 106
l-28 27 -27 -46 c-34 -57 -110 -118 -204 -163 -65 -31 -81 -34 -160 -35 -94 0
-171 18 -230 55 -52 32 -119 95 -153 145 -27 38 -32 41 -55 33 -39 -15 -42
-14 -73 48 -16 31 -61 102 -100 156 -95 132 -141 227 -143 290 0 44 3 53 31
78 38 34 41 34 77 3 44 -38 97 -34 140 9 30 30 34 40 34 88 0 113 -102 181
-163 109z m1541 -825 c61 -32 108 -114 97 -168 -9 -41 -59 -94 -101 -108 -89
-30 -194 50 -194 147 0 44 33 96 76 120 45 26 84 29 122 9z"/>
</g>
</svg>
